<?xml version="1.0" encoding="UTF-8" standalone="no"?>
<!-- Created with Inkscape (http://www.inkscape.org/) -->

<svg
   width="32mm"
   height="32mm"
   viewBox="0 0 32 32"
   version="1.1"
   id="svg1"
   xmlns="http://www.w3.org/2000/svg"
   xmlns:svg="http://www.w3.org/2000/svg">
  <defs
     id="defs1" />
  <g
     id="layer1"
     style="display:inline">
    <rect
       style="fill:#808080;stroke-width:0.281252"
       id="rect2"
       width="0.99999994"
       height="0.99999994"
       x="15"
       y="2.9999998"
       ry="0" />
    <rect
       style="fill:#808080;stroke-width:0.281252"
       id="rect2-3"
       width="0.99999994"
       height="0.99999994"
       x="14"
       y="2.9999998"
       ry="0" />
    <rect
       style="fill:#808080;stroke-width:0.281252"
       id="rect2-36"
       width="0.99999994"
       height="0.99999994"
       x="13"
       y="2.9999998"
       ry="0" />
    <rect
       style="fill:#808080;stroke-width:0.281252"
       id="rect2-1"
       width="0.99999994"
       height="0.99999994"
       x="16"
       y="2.9999998"
       ry="0" />
    <rect
       style="fill:#808080;stroke-width:0.281252"
       id="rect2-0"
       width="0.99999994"
       height="0.99999994"
       x="17"
       y="3.9999998"
       ry="0" />
    <rect
       style="fill:#808080;stroke-width:0.281252"
       id="rect2-7"
       width="0.99999994"
       height="0.99999994"
       x="12"
       y="3.9999998"
       ry="0" />
    <rect
       style="fill:#808080;stroke-width:0.281252"
       id="rect2-78"
       width="0.99999994"
       height="0.99999994"
       x="18"
       y="4.9999995"
       ry="0" />
    <rect
       style="fill:#808080;stroke-width:0.281252"
       id="rect2-6"
       width="0.99999994"
       height="0.99999994"
       x="18"
       y="5.9999995"
       ry="0" />
    <rect
       style="fill:#808080;stroke-width:0.281252"
       id="rect2-5"
       width="0.99999994"
       height="0.99999994"
       x="18"
       y="6.9999995"
       ry="0" />
    <rect
       style="fill:#808080;stroke-width:0.281252"
       id="rect2-69"
       width="0.99999994"
       height="0.99999994"
       x="18"
       y="7.9999995"
       ry="0" />
    <rect
       style="fill:#808080;stroke-width:0.281252"
       id="rect2-2"
       width="0.99999994"
       height="0.99999994"
       x="18"
       y="9.999999"
       ry="0" />
    <rect
       style="fill:#808080;stroke-width:0.281252"
       id="rect2-26"
       width="0.99999994"
       height="0.99999994"
       x="11"
       y="4.9999995"
       ry="0" />
    <rect
       style="fill:#808080;stroke-width:0.281252"
       id="rect2-59"
       width="0.99999994"
       height="0.99999994"
       x="11"
       y="5.9999995"
       ry="0" />
    <rect
       style="fill:#808080;stroke-width:0.281252"
       id="rect2-17"
       width="0.99999994"
       height="0.99999994"
       x="11"
       y="6.9999995"
       ry="0" />
    <rect
       style="fill:#808080;stroke-width:0.281252"
       id="rect2-9"
       width="0.99999994"
       height="0.99999994"
       x="11"
       y="9"
       ry="0" />
    <rect
       style="fill:#808080;stroke-width:0.281252"
       id="rect2-365"
       width="0.99999994"
       height="0.99999994"
       x="11"
       y="16"
       ry="0" />
    <rect
       style="fill:#808080;stroke-width:0.281252"
       id="rect2-8"
       width="0.99999994"
       height="0.99999994"
       x="11"
       y="17"
       ry="0" />
    <rect
       style="fill:#808080;stroke-width:0.281252"
       id="rect2-90"
       width="0.99999994"
       height="0.99999994"
       x="11"
       y="17.999998"
       ry="0" />
    <rect
       style="fill:#808080;stroke-width:0.281252"
       id="rect2-96"
       width="0.99999994"
       height="0.99999994"
       x="11"
       y="18.999998"
       ry="0" />
    <rect
       style="fill:#808080;stroke-width:0.281252"
       id="rect2-11"
       width="0.99999994"
       height="0.99999994"
       x="11"
       y="19.999998"
       ry="0" />
    <rect
       style="fill:#808080;stroke-width:0.281252"
       id="rect2-81"
       width="0.99999994"
       height="0.99999994"
       x="11"
       y="20.999998"
       ry="0" />
    <rect
       style="fill:#808080;stroke-width:0.281252"
       id="rect2-4"
       width="0.99999994"
       height="0.99999994"
       x="11"
       y="21.999998"
       ry="0" />
    <rect
       style="fill:#808080;stroke-width:0.281252"
       id="rect2-31"
       width="0.99999994"
       height="0.99999994"
       x="11"
       y="22.999998"
       ry="0" />
    <rect
       style="fill:#808080;stroke-width:0.281252"
       id="rect2-21"
       width="0.99999994"
       height="0.99999994"
       x="11"
       y="23.999998"
       ry="0" />
    <rect
       style="fill:#808080;stroke-width:0.281252"
       id="rect2-41"
       width="0.99999994"
       height="0.99999994"
       x="11"
       y="24.999998"
       ry="0" />
    <rect
       style="fill:#808080;stroke-width:0.281252"
       id="rect2-53"
       width="0.99999994"
       height="0.99999994"
       x="12"
       y="25.999998"
       ry="0" />
    <rect
       style="fill:#808080;stroke-width:0.281252"
       id="rect2-89"
       width="0.99999994"
       height="0.99999994"
       x="13"
       y="26.999998"
       ry="0" />
    <rect
       style="fill:#808080;stroke-width:0.281252"
       id="rect2-38"
       width="0.99999994"
       height="0.99999994"
       x="14"
       y="27.999998"
       ry="0" />
    <rect
       style="fill:#808080;stroke-width:0.281252"
       id="rect2-88"
       width="0.99999994"
       height="0.99999994"
       x="15"
       y="27.999998"
       ry="0" />
    <rect
       style="fill:#808080;stroke-width:0.281252"
       id="rect2-43"
       width="0.99999994"
       height="0.99999994"
       x="16"
       y="27.999998"
       ry="0" />
    <rect
       style="fill:#808080;stroke-width:0.281252"
       id="rect2-25"
       width="0.99999994"
       height="0.99999994"
       x="17"
       y="27.999998"
       ry="0" />
    <rect
       style="fill:#808080;stroke-width:0.281252"
       id="rect2-46"
       width="0.99999994"
       height="0.99999994"
       x="18"
       y="26.999998"
       ry="0" />
    <rect
       style="fill:#808080;stroke-width:0.281252"
       id="rect2-77"
       width="0.99999994"
       height="0.99999994"
       x="19"
       y="25.999998"
       ry="0" />
    <rect
       style="fill:#808080;stroke-width:0.281252"
       id="rect2-28"
       width="0.99999994"
       height="0.99999994"
       x="20"
       y="24.999998"
       ry="0" />
    <rect
       style="fill:#808080;stroke-width:0.281252"
       id="rect2-02"
       width="0.99999994"
       height="0.99999994"
       x="20"
       y="23.999998"
       ry="0" />
    <rect
       style="fill:#808080;stroke-width:0.281252"
       id="rect2-10"
       width="0.99999994"
       height="0.99999994"
       x="20"
       y="22.999998"
       ry="0" />
    <rect
       style="fill:#808080;stroke-width:0.281252"
       id="rect2-462"
       width="0.99999994"
       height="0.99999994"
       x="20"
       y="21.999998"
       ry="0" />
    <rect
       style="fill:#808080;stroke-width:0.281252"
       id="rect2-84"
       width="0.99999994"
       height="0.99999994"
       x="21"
       y="20.999998"
       ry="0" />
    <rect
       style="fill:#808080;stroke-width:0.281252"
       id="rect2-62"
       width="0.99999994"
       height="0.99999994"
       x="21"
       y="19.999998"
       ry="0" />
    <rect
       style="fill:#808080;stroke-width:0.281252"
       id="rect2-40"
       width="0.99999994"
       height="0.99999994"
       x="21"
       y="18.999998"
       ry="0" />
    <rect
       style="fill:#808080;stroke-width:0.281252"
       id="rect2-693"
       width="0.99999994"
       height="0.99999994"
       x="21"
       y="17.999998"
       ry="0" />
    <rect
       style="fill:#808080;stroke-width:0.281252"
       id="rect2-66"
       width="0.99999994"
       height="0.99999994"
       x="22"
       y="17"
       ry="0" />
    <rect
       style="fill:#808080;stroke-width:0.281252"
       id="rect2-626"
       width="0.99999994"
       height="0.99999994"
       x="18"
       y="17"
       ry="0" />
    <rect
       style="fill:#808080;stroke-width:0.281252"
       id="rect2-87"
       width="0.99999994"
       height="0.99999994"
       x="18"
       y="17.999998"
       ry="0" />
    <rect
       style="fill:#808080;stroke-width:0.281252"
       id="rect2-960"
       width="0.99999994"
       height="0.99999994"
       x="18"
       y="18.999998"
       ry="0" />
    <rect
       style="fill:#808080;stroke-width:0.281252"
       id="rect2-32"
       width="0.99999994"
       height="0.99999994"
       x="18"
       y="19.999998"
       ry="0" />
    <rect
       style="fill:#808080;stroke-width:0.281252"
       id="rect2-14"
       width="0.99999994"
       height="0.99999994"
       x="17"
       y="20.999998"
       ry="0" />
    <rect
       style="fill:#808080;stroke-width:0.281252"
       id="rect2-58"
       width="0.99999994"
       height="0.99999994"
       x="16"
       y="21.999998"
       ry="0" />
    <rect
       style="fill:#808080;stroke-width:0.281252"
       id="rect2-04"
       width="0.99999994"
       height="0.99999994"
       x="15"
       y="20.999998"
       ry="0" />
    <rect
       style="fill:#808080;stroke-width:0.281252"
       id="rect2-042"
       width="0.99999994"
       height="0.99999994"
       x="14"
       y="19.999998"
       ry="0" />
    <rect
       style="fill:#808080;stroke-width:0.281252"
       id="rect2-52"
       width="0.99999994"
       height="0.99999994"
       x="14"
       y="18.999998"
       ry="0" />
    <rect
       style="fill:#808080;stroke-width:0.281252"
       id="rect2-380"
       width="0.99999994"
       height="0.99999994"
       x="14"
       y="17.999998"
       ry="0" />
    <rect
       style="fill:#808080;stroke-width:0.281252"
       id="rect2-962"
       width="0.99999994"
       height="0.99999994"
       x="14"
       y="17"
       ry="0" />
    <rect
       style="fill:#cccccc;stroke-width:0.281252"
       id="rect2-93"
       width="0.99999994"
       height="0.99999994"
       x="15"
       y="19.999998"
       ry="0" />
    <rect
       style="fill:#cccccc;stroke-width:0.281252"
       id="rect2-93-2"
       width="0.99999994"
       height="0.99999994"
       x="15"
       y="18.999998"
       ry="0" />
    <rect
       style="fill:#cccccc;stroke-width:0.281252"
       id="rect2-93-1"
       width="0.99999994"
       height="0.99999994"
       x="15"
       y="17.999998"
       ry="0" />
    <rect
       style="fill:#cccccc;stroke-width:0.281252"
       id="rect2-93-4"
       width="0.99999994"
       height="0.99999994"
       x="15"
       y="16.999998"
       ry="0" />
    <rect
       style="fill:#cccccc;stroke-width:0.281252"
       id="rect2-93-26"
       width="0.99999994"
       height="0.99999994"
       x="15"
       y="15.999998"
       ry="0" />
    <rect
       style="fill:#cccccc;stroke-width:0.281252"
       id="rect2-93-8"
       width="0.99999994"
       height="0.99999994"
       x="16"
       y="20.999998"
       ry="0" />
    <rect
       style="fill:#cccccc;stroke-width:0.281252"
       id="rect2-93-86"
       width="0.99999994"
       height="0.99999994"
       x="15"
       y="21.999998"
       ry="0" />
    <rect
       style="display:inline;fill:#cccccc;stroke-width:0.281252"
       id="rect2-93-86-3"
       width="0.99999994"
       height="0.99999994"
       x="14"
       y="20.999998"
       ry="0" />
    <rect
       style="fill:#cccccc;stroke-width:0.281252"
       id="rect2-93-3"
       width="0.99999994"
       height="0.99999994"
       x="17"
       y="21.999998"
       ry="0" />
    <rect
       style="fill:#cccccc;stroke-width:0.281252"
       id="rect2-93-7"
       width="0.99999994"
       height="0.99999994"
       x="18"
       y="20.999998"
       ry="0" />
    <rect
       style="fill:#cccccc;stroke-width:0.281252"
       id="rect2-93-6"
       width="0.99999994"
       height="0.99999994"
       x="19"
       y="19.999998"
       ry="0" />
    <rect
       style="fill:#cccccc;stroke-width:0.281252"
       id="rect2-93-33"
       width="0.99999994"
       height="0.99999994"
       x="19"
       y="18.999998"
       ry="0" />
    <rect
       style="fill:#cccccc;stroke-width:0.281252"
       id="rect2-93-65"
       width="0.99999994"
       height="0.99999994"
       x="19"
       y="17.999998"
       ry="0" />
    <rect
       style="fill:#cccccc;stroke-width:0.281252"
       id="rect2-93-79"
       width="0.99999994"
       height="0.99999994"
       x="19"
       y="16.999998"
       ry="0" />
    <rect
       style="fill:#cccccc;stroke-width:0.281252"
       id="rect2-93-9"
       width="0.99999994"
       height="0.99999994"
       x="10"
       y="15.999998"
       ry="0" />
    <rect
       style="fill:#cccccc;stroke-width:0.281252"
       id="rect2-93-49"
       width="0.99999994"
       height="0.99999994"
       x="10"
       y="16.999998"
       ry="0" />
    <rect
       style="fill:#cccccc;stroke-width:0.281252"
       id="rect2-93-99"
       width="0.99999994"
       height="0.99999994"
       x="10"
       y="17.999998"
       ry="0" />
    <rect
       style="fill:#cccccc;stroke-width:0.281252"
       id="rect2-93-5"
       width="0.99999994"
       height="0.99999994"
       x="10"
       y="18.999998"
       ry="0" />
    <rect
       style="fill:#cccccc;stroke-width:0.281252"
       id="rect2-93-997"
       width="0.99999994"
       height="0.99999994"
       x="10"
       y="19.999998"
       ry="0" />
    <rect
       style="fill:#cccccc;stroke-width:0.281252"
       id="rect2-93-490"
       width="0.99999994"
       height="0.99999994"
       x="10"
       y="20.999998"
       ry="0" />
    <rect
       style="fill:#cccccc;stroke-width:0.281252"
       id="rect2-93-62"
       width="0.99999994"
       height="0.99999994"
       x="10"
       y="21.999998"
       ry="0" />
    <rect
       style="fill:#cccccc;stroke-width:0.281252"
       id="rect2-93-31"
       width="0.99999994"
       height="0.99999994"
       x="10"
       y="22.999998"
       ry="0" />
    <rect
       style="fill:#cccccc;stroke-width:0.281252"
       id="rect2-93-67"
       width="0.99999994"
       height="0.99999994"
       x="10"
       y="23.999998"
       ry="0" />
    <rect
       style="fill:#cccccc;stroke-width:0.281252"
       id="rect2-93-47"
       width="0.99999994"
       height="0.99999994"
       x="10"
       y="24.999998"
       ry="0" />
    <rect
       style="fill:#cccccc;stroke-width:0.281252"
       id="rect2-93-260"
       width="0.99999994"
       height="0.99999994"
       x="11"
       y="25.999998"
       ry="0" />
    <rect
       style="fill:#cccccc;stroke-width:0.281252"
       id="rect2-93-28"
       width="0.99999994"
       height="0.99999994"
       x="12"
       y="26.999998"
       ry="0" />
    <rect
       style="fill:#cccccc;stroke-width:0.281252"
       id="rect2-93-0"
       width="0.99999994"
       height="0.99999994"
       x="13"
       y="27.999998"
       ry="0" />
    <rect
       style="fill:#cccccc;stroke-width:0.281252"
       id="rect2-93-77"
       width="0.99999994"
       height="0.99999994"
       x="14"
       y="28.999998"
       ry="0" />
    <rect
       style="fill:#cccccc;stroke-width:0.281252"
       id="rect2-93-20"
       width="0.99999994"
       height="0.99999994"
       x="15"
       y="28.999998"
       ry="0" />
    <rect
       style="fill:#cccccc;stroke-width:0.281252"
       id="rect2-93-94"
       width="0.99999994"
       height="0.99999994"
       x="16"
       y="28.999998"
       ry="0" />
    <rect
       style="fill:#cccccc;stroke-width:0.281252"
       id="rect2-93-78"
       width="0.99999994"
       height="0.99999994"
       x="17"
       y="28.999998"
       ry="0" />
    <rect
       style="fill:#cccccc;stroke-width:0.281252"
       id="rect2-93-676"
       width="0.99999994"
       height="0.99999994"
       x="18"
       y="27.999998"
       ry="0" />
    <rect
       style="fill:#cccccc;stroke-width:0.281252"
       id="rect2-93-97"
       width="0.99999994"
       height="0.99999994"
       x="19"
       y="26.999998"
       ry="0" />
    <rect
       style="fill:#cccccc;stroke-width:0.281252"
       id="rect2-93-83"
       width="0.99999994"
       height="0.99999994"
       x="20"
       y="25.999998"
       ry="0" />
    <rect
       style="fill:#cccccc;stroke-width:0.281252"
       id="rect2-93-87"
       width="0.99999994"
       height="0.99999994"
       x="21"
       y="24.999998"
       ry="0" />
    <rect
       style="fill:#cccccc;stroke-width:0.281252"
       id="rect2-93-98"
       width="0.99999994"
       height="0.99999994"
       x="21"
       y="23.999998"
       ry="0" />
    <rect
       style="fill:#cccccc;stroke-width:0.281252"
       id="rect2-93-37"
       width="0.99999994"
       height="0.99999994"
       x="21"
       y="22.999998"
       ry="0" />
    <rect
       style="fill:#cccccc;stroke-width:0.281252"
       id="rect2-93-979"
       width="0.99999994"
       height="0.99999994"
       x="21"
       y="21.999998"
       ry="0" />
    <rect
       style="fill:#cccccc;stroke-width:0.281252"
       id="rect2-93-371"
       width="0.99999994"
       height="0.99999994"
       x="22"
       y="20.999998"
       ry="0" />
    <rect
       style="fill:#cccccc;stroke-width:0.281252"
       id="rect2-93-17"
       width="0.99999994"
       height="0.99999994"
       x="22"
       y="19.999998"
       ry="0" />
    <rect
       style="fill:#cccccc;stroke-width:0.281252"
       id="rect2-93-171"
       width="0.99999994"
       height="0.99999994"
       x="22"
       y="18.999998"
       ry="0" />
    <rect
       style="fill:#cccccc;stroke-width:0.281252"
       id="rect2-93-40"
       width="0.99999994"
       height="0.99999994"
       x="22"
       y="17.999998"
       ry="0" />
    <rect
       style="fill:#cccccc;stroke-width:0.281252"
       id="rect2-93-621"
       width="0.99999994"
       height="0.99999994"
       x="23"
       y="16.999998"
       ry="0" />
    <rect
       style="fill:#cccccc;stroke-width:0.281252"
       id="rect2-93-08"
       width="0.99999994"
       height="0.99999994"
       x="23"
       y="15.999998"
       ry="0" />
    <rect
       style="fill:#cccccc;stroke-width:0.281252"
       id="rect2-93-975"
       width="0.99999994"
       height="0.99999994"
       x="19"
       y="9.9999981"
       ry="0" />
    <rect
       style="fill:#cccccc;stroke-width:0.281252"
       id="rect2-93-797"
       width="0.99999994"
       height="0.99999994"
       x="10"
       y="9"
       ry="0" />
    <rect
       style="fill:#cccccc;stroke-width:0.281252"
       id="rect2-93-06"
       width="0.99999994"
       height="0.99999994"
       x="10"
       y="6.9999981"
       ry="0" />
    <rect
       style="fill:#cccccc;stroke-width:0.281252"
       id="rect2-93-941"
       width="0.99999994"
       height="0.99999994"
       x="10"
       y="5.9999981"
       ry="0" />
    <rect
       style="fill:#cccccc;stroke-width:0.281252"
       id="rect2-93-54"
       width="0.99999994"
       height="0.99999994"
       x="10"
       y="4.9999981"
       ry="0" />
    <rect
       style="fill:#cccccc;stroke-width:0.281252"
       id="rect2-93-52"
       width="0.99999994"
       height="0.99999994"
       x="11"
       y="3.9999981"
       ry="0" />
    <rect
       style="fill:#cccccc;stroke-width:0.281252"
       id="rect2-93-34"
       width="0.99999994"
       height="0.99999994"
       x="12"
       y="2.9999981"
       ry="0" />
    <rect
       style="fill:#cccccc;stroke-width:0.281252"
       id="rect2-93-344"
       width="0.99999994"
       height="0.99999994"
       x="13"
       y="1.9999981"
       ry="0" />
    <rect
       style="fill:#cccccc;stroke-width:0.281252"
       id="rect2-93-58"
       width="0.99999994"
       height="0.99999994"
       x="14"
       y="1.9999981"
       ry="0" />
    <rect
       style="fill:#cccccc;stroke-width:0.281252"
       id="rect2-93-76"
       width="0.99999994"
       height="0.99999994"
       x="15"
       y="1.9999981"
       ry="0" />
    <rect
       style="fill:#cccccc;stroke-width:0.281252"
       id="rect2-93-338"
       width="0.99999994"
       height="0.99999994"
       x="16"
       y="1.9999981"
       ry="0" />
    <rect
       style="fill:#cccccc;stroke-width:0.281252"
       id="rect2-93-763"
       width="0.99999994"
       height="0.99999994"
       x="17"
       y="2.9999981"
       ry="0" />
    <rect
       style="fill:#cccccc;stroke-width:0.281252"
       id="rect2-93-41"
       width="0.99999994"
       height="0.99999994"
       x="18"
       y="3.9999981"
       ry="0" />
    <rect
       style="fill:#cccccc;stroke-width:0.281252"
       id="rect2-93-341"
       width="0.99999994"
       height="0.99999994"
       x="19"
       y="4.9999981"
       ry="0" />
    <rect
       style="fill:#cccccc;stroke-width:0.281252"
       id="rect2-93-56"
       width="0.99999994"
       height="0.99999994"
       x="19"
       y="5.9999981"
       ry="0" />
    <rect
       style="fill:#cccccc;stroke-width:0.281252"
       id="rect2-93-7637"
       width="0.99999994"
       height="0.99999994"
       x="19"
       y="6.9999981"
       ry="0" />
    <rect
       style="fill:#cccccc;stroke-width:0.281252"
       id="rect2-93-650"
       width="0.99999994"
       height="0.99999994"
       x="19"
       y="7.9999981"
       ry="0" />
    <rect
       style="fill:#000000;stroke-width:0.281252"
       id="rect13"
       width="0.99999994"
       height="0.99999994"
       x="11"
       y="9.999999" />
    <rect
       style="fill:#000000;stroke-width:0.281252"
       id="rect13-2"
       width="0.99999994"
       height="0.99999994"
       x="10"
       y="9.999999" />
    <rect
       style="fill:#000000;stroke-width:0.281252"
       id="rect13-28"
       width="0.99999994"
       height="0.99999994"
       x="9"
       y="10.999999" />
    <rect
       style="fill:#000000;stroke-width:0.281252"
       id="rect13-0"
       width="0.99999994"
       height="0.99999994"
       x="8"
       y="11.999999" />
    <rect
       style="fill:#000000;stroke-width:0.281252"
       id="rect13-7"
       width="0.99999994"
       height="0.99999994"
       x="8"
       y="12.999999" />
    <rect
       style="fill:#000000;stroke-width:0.281252"
       id="rect13-4"
       width="0.99999994"
       height="0.99999994"
       x="9"
       y="13.999999" />
    <rect
       style="fill:#000000;stroke-width:0.281252"
       id="rect13-08"
       width="0.99999994"
       height="0.99999994"
       x="10"
       y="14.999999" />
    <rect
       style="fill:#000000;stroke-width:0.281252"
       id="rect13-1"
       width="0.99999994"
       height="0.99999994"
       x="11"
       y="14.999999" />
    <rect
       style="fill:#000000;stroke-width:0.281252"
       id="rect13-24"
       width="0.99999994"
       height="0.99999994"
       x="12"
       y="13.999999" />
    <rect
       style="fill:#000000;stroke-width:0.281252"
       id="rect13-71"
       width="0.99999994"
       height="0.99999994"
       x="13"
       y="12.999999" />
    <rect
       style="fill:#000000;stroke-width:0.281252"
       id="rect13-3"
       width="0.99999994"
       height="0.99999994"
       x="13"
       y="11.999999" />
    <rect
       style="fill:#000000;stroke-width:0.281252"
       id="rect13-8"
       width="0.99999994"
       height="0.99999994"
       x="12"
       y="10.999999" />
    <rect
       style="fill:#000000;stroke-width:0.281252"
       id="rect13-84"
       width="0.99999994"
       height="0.99999994"
       x="10"
       y="7.999999" />
    <rect
       style="fill:#000000;stroke-width:0.281252"
       id="rect13-5"
       width="0.99999994"
       height="0.99999994"
       x="11"
       y="7.999999" />
    <rect
       style="fill:#000000;stroke-width:0.281252"
       id="rect13-6"
       width="0.99999994"
       height="0.99999994"
       x="12"
       y="6.999999" />
    <rect
       style="fill:#000000;stroke-width:0.281252"
       id="rect13-9"
       width="0.99999994"
       height="0.99999994"
       x="9"
       y="7.999999" />
    <rect
       style="fill:#000000;stroke-width:0.281252"
       id="rect13-14"
       width="0.99999994"
       height="0.99999994"
       x="8"
       y="8.999999" />
    <rect
       style="fill:#000000;stroke-width:0.281252"
       id="rect13-73"
       width="0.99999994"
       height="0.99999994"
       x="11"
       y="11.999999" />
    <rect
       style="fill:#000000;stroke-width:0.281252"
       id="rect13-15"
       width="0.99999994"
       height="0.99999994"
       x="10"
       y="11.999999" />
    <rect
       style="fill:#000000;stroke-width:0.281252"
       id="rect13-01"
       width="0.99999994"
       height="0.99999994"
       x="10"
       y="12.999999" />
    <rect
       style="fill:#000000;stroke-width:0.281252"
       id="rect13-13"
       width="0.99999994"
       height="0.99999994"
       x="11"
       y="12.999999" />
    <rect
       style="fill:#000000;stroke-width:0.281252"
       id="rect13-75"
       width="0.99999994"
       height="0.99999994"
       x="18"
       y="8.999999" />
    <rect
       style="fill:#000000;stroke-width:0.281252"
       id="rect13-21"
       width="0.99999994"
       height="0.99999994"
       x="19"
       y="8.999999" />
    <rect
       style="fill:#000000;stroke-width:0.281252"
       id="rect13-65"
       width="0.99999994"
       height="0.99999994"
       x="17"
       y="8.4666672" />
    <rect
       style="fill:#000000;stroke-width:0.281252"
       id="rect13-30"
       width="0.99999994"
       height="0.99999994"
       x="20"
       y="8.999999" />
    <rect
       style="fill:#000000;stroke-width:0.281252"
       id="rect13-50"
       width="0.99999994"
       height="0.99999994"
       x="21"
       y="9.999999" />
    <rect
       style="fill:#000000;stroke-width:0.281252"
       id="rect13-60"
       width="0.99999994"
       height="0.99999994"
       x="19"
       y="10.999999" />
    <rect
       style="fill:#000000;stroke-width:0.281252"
       id="rect13-506"
       width="0.99999994"
       height="0.99999994"
       x="18"
       y="10.999999" />
    <rect
       style="fill:#000000;stroke-width:0.281252"
       id="rect13-82"
       width="0.99999994"
       height="0.99999994"
       x="17"
       y="11.999999" />
    <rect
       style="fill:#000000;stroke-width:0.281252"
       id="rect13-55"
       width="0.99999994"
       height="0.99999994"
       x="16"
       y="12.999999" />
    <rect
       style="fill:#000000;stroke-width:0.281252"
       id="rect13-23"
       width="0.99999994"
       height="0.99999994"
       x="16"
       y="13.999999" />
    <rect
       style="fill:#000000;stroke-width:0.281252"
       id="rect13-69"
       width="0.99999994"
       height="0.99999994"
       x="17"
       y="14.999999" />
    <rect
       style="fill:#000000;stroke-width:0.281252"
       id="rect13-70"
       width="0.99999994"
       height="0.99999994"
       x="18"
       y="15.999999" />
    <rect
       style="fill:#000000;stroke-width:0.281252"
       id="rect13-77"
       width="0.99999994"
       height="0.99999994"
       x="19"
       y="15.999999" />
    <rect
       style="fill:#000000;stroke-width:0.281252"
       id="rect13-715"
       width="0.99999994"
       height="0.99999994"
       x="20"
       y="14.999999" />
    <rect
       style="fill:#ffffff;stroke-width:0.281252"
       id="rect13-140-7"
       width="0.99999994"
       height="0.99999994"
       x="20"
       y="13.999999" />
    <rect
       style="fill:#ffffff;stroke-width:0.281252"
       id="rect13-140-76"
       width="0.99999994"
       height="0.99999994"
       x="19"
       y="14.999999" />
    <rect
       style="fill:#ffffff;stroke-width:0.281252"
       id="rect13-140-5"
       width="0.99999994"
       height="0.99999994"
       x="18"
       y="14.999999" />
    <rect
       style="fill:#ffffff;stroke-width:0.281252"
       id="rect13-140-3"
       width="0.99999994"
       height="0.99999994"
       x="17"
       y="13.999999" />
    <rect
       style="fill:#ffffff;stroke-width:0.281252"
       id="rect13-140-8"
       width="0.99999994"
       height="0.99999994"
       x="17"
       y="12.999999" />
    <rect
       style="fill:#ffffff;stroke-width:0.281252"
       id="rect13-140-4"
       width="0.99999994"
       height="0.99999994"
       x="18"
       y="11.999999" />
    <rect
       style="fill:#ffffff;stroke-width:0.281252"
       id="rect13-140-2"
       width="0.99999994"
       height="0.99999994"
       x="19"
       y="11.999999" />
    <rect
       style="fill:#ffffff;stroke-width:0.281252"
       id="rect13-140-6"
       width="0.99999994"
       height="0.99999994"
       x="10"
       y="10.999999" />
    <rect
       style="fill:#ffffff;stroke-width:0.281252"
       id="rect13-140-54"
       width="0.99999994"
       height="0.99999994"
       x="11"
       y="10.999999" />
    <rect
       style="fill:#ffffff;stroke-width:0.281252"
       id="rect13-140-9"
       width="0.99999994"
       height="0.99999994"
       x="12"
       y="11.999999" />
    <rect
       style="fill:#ffffff;stroke-width:0.281252"
       id="rect13-140-0"
       width="0.99999994"
       height="0.99999994"
       x="12"
       y="12.999999" />
    <rect
       style="fill:#ffffff;stroke-width:0.281252"
       id="rect13-140-45"
       width="0.99999994"
       height="0.99999994"
       x="11"
       y="13.999999" />
    <rect
       style="fill:#ffffff;stroke-width:0.281252"
       id="rect13-140-38"
       width="0.99999994"
       height="0.99999994"
       x="10"
       y="13.999999" />
    <rect
       style="fill:#ffffff;stroke-width:0.281252"
       id="rect13-140-86"
       width="0.99999994"
       height="0.99999994"
       x="9"
       y="12.999999" />
    <rect
       style="fill:#ffffff;stroke-width:0.281252"
       id="rect13-140-1"
       width="0.99999994"
       height="0.99999994"
       x="9"
       y="11.999999" />
    <rect
       style="fill:#000000;stroke-width:0.281252"
       id="rect13-656"
       width="0.99999994"
       height="0.99999994"
       x="21"
       y="13.999999" />
    <rect
       style="fill:#000000;stroke-width:0.281252"
       id="rect13-38"
       width="0.99999994"
       height="0.99999994"
       x="21"
       y="12.999999" />
    <rect
       style="fill:#000000;stroke-width:0.281252"
       id="rect13-505"
       width="0.99999994"
       height="0.99999994"
       x="20"
       y="11.999999" />
    <rect
       style="fill:#000000;stroke-width:0.281252"
       id="rect13-213"
       width="0.99999994"
       height="0.99999994"
       x="18"
       y="12.999999" />
    <rect
       style="fill:#000000;stroke-width:0.281252"
       id="rect13-95"
       width="0.99999994"
       height="0.99999994"
       x="19"
       y="12.999999" />
    <rect
       style="fill:#000000;stroke-width:0.281252"
       id="rect13-216"
       width="0.99999994"
       height="0.99999994"
       x="18"
       y="13.999999" />
    <rect
       style="fill:#000000;stroke-width:0.281252"
       id="rect13-97"
       width="0.99999994"
       height="0.99999994"
       x="19"
       y="13.999999" />
    <rect
       style="fill:#ffffff;stroke-width:0.281252"
       id="rect13-140"
       width="0.99999994"
       height="0.99999994"
       x="20"
       y="12.999999" />
  </g>
</svg>
